<svg xmlns="http://www.w3.org/2000/svg" viewBox="0 0 865.64 864"><defs><style>.cls-1{fill:#fff;}</style></defs><g id="Calque_2" data-name="Calque 2"><g id="Calque_2-2" data-name="Calque 2"><path id="Logo" class="cls-1" d="M865.64,288V1.64A1.63,1.63,0,0,0,864,0H1.64A1.63,1.63,0,0,0,0,1.64V862.36A1.63,1.63,0,0,0,1.64,864h684a180,180,0,0,0,144-72h0a179.77,179.77,0,0,0,0-216h0a180.74,180.74,0,0,0-67-54.74A144,144,0,0,0,649.64,288H144V720h72V360h72a215.62,215.62,0,0,1,72,12.29c3.05,1.08,6.05,2.22,9,3.43A215.75,215.75,0,0,1,432,415a209.27,209.27,0,0,1,17,17,215.71,215.71,0,0,1,0,288,209.27,209.27,0,0,1-17,17,215.75,215.75,0,0,1-63,39.3c-3,1.21-6,2.35-9,3.43A215.62,215.62,0,0,1,288,792H72V72H793.64V288ZM495,375.72Q487,367.54,478.5,360H650.12c32.45,0,61.19,21.76,69.15,53.23,12.1,47.86-23.76,90.77-69.63,90.77H566.92A285.55,285.55,0,0,0,540,436.53q-1.26-2.28-2.56-4.53A288.61,288.61,0,0,0,504,385.5Q499.61,380.51,495,375.72Zm0,400.56q4.62-4.78,9-9.78A288.61,288.61,0,0,0,537.47,720q1.31-2.25,2.56-4.53A285.55,285.55,0,0,0,566.92,648c.05-.19.1-.37.14-.55A288.22,288.22,0,0,0,576,576H685.64a107.61,107.61,0,0,1,72,27.5,106.52,106.52,0,0,1,8.5,8.5,108,108,0,0,1,0,144,106.52,106.52,0,0,1-8.5,8.5,107.61,107.61,0,0,1-72,27.5H478.5Q487,784.47,495,776.28Z"/><rect id="Cube_Point" data-name="Cube Point" class="cls-1" x="685.64" y="108" width="72" height="72"/></g></g></svg>